<svg xmlns="http://www.w3.org/2000/svg" viewBox="0 0 48 48" width="48" height="48">
  <defs>
    <linearGradient id="ig-grad" x1="0%" y1="100%" x2="100%" y2="0%">
      <stop offset="0%" style="stop-color:#F58529"/>
      <stop offset="50%" style="stop-color:#E1306C"/>
      <stop offset="100%" style="stop-color:#833AB4"/>
    </linearGradient>
  </defs>
  <!-- Instagram kamera (bir burchagi kesik) -->
  <path d="M6 14 Q6 8 12 8 L32 8 Q38 8 38 14 L38 38 Q38 44 32 44 L12 44 Q6 44 6 38 Z" fill="url(#ig-grad)" opacity="0.15" stroke="url(#ig-grad)" stroke-width="2.5" fill="none"/>
  <path d="M6 14 Q6 8 12 8 L32 8 Q38 8 38 14 L38 38 Q38 44 32 44 L12 44 Q6 44 6 38 Z" fill="url(#ig-grad)" opacity="0.12"/>
  <!-- Kamera linzasi -->
  <circle cx="22" cy="27" r="8" fill="none" stroke="url(#ig-grad)" stroke-width="2.5"/>
  <circle cx="22" cy="27" r="3.5" fill="url(#ig-grad)" opacity="0.6"/>
  <!-- Kamera tepasidagi nuqta -->
  <circle cx="31" cy="15" r="2" fill="url(#ig-grad)"/>
  <!-- Yashil aravacha (ustida) -->
  <g transform="translate(24, 4)">
    <rect x="2" y="4" width="18" height="13" rx="3" fill="#00C851"/>
    <line x1="2" y1="8" x2="20" y2="8" stroke="white" stroke-width="1.5"/>
    <!-- Aravacha dastasi -->
    <path d="M0 6 L2 4" stroke="#00C851" stroke-width="2" stroke-linecap="round"/>
    <!-- Yulduzcha (chegirma belgisi) -->
    <text x="11" y="15.5" font-size="7" fill="white" font-weight="bold" text-anchor="middle">$</text>
    <!-- G'ildiraklar -->
    <circle cx="6" cy="19" r="2.5" fill="#00C851"/>
    <circle cx="16" cy="19" r="2.5" fill="#00C851"/>
  </g>
</svg>
